<svg width="10" height="13" viewBox="0 0 10 13" fill="none" xmlns="http://www.w3.org/2000/svg">
<path d="M4.81983 5.37648C6.26682 5.37648 7.43989 4.17286 7.43989 2.68818C7.43989 1.20351 6.26682 0 4.81983 0C3.37284 0 2.19987 1.20362 2.19987 2.6883C2.2015 4.17219 3.37359 5.37481 4.81983 5.37648ZM4.81983 0.569446C5.96038 0.569446 6.8849 1.51804 6.8849 2.6883C6.8849 3.85844 5.96038 4.80703 4.81983 4.80703C3.67938 4.80703 2.75486 3.85844 2.75486 2.6883C2.75617 1.5186 3.67992 0.57078 4.81983 0.569446Z" fill="#828282"/>
<path d="M4.88823 6.32339C2.19641 6.32228 0.0140532 8.56158 0.0151371 11.3234V12.4708C0.0151371 12.6281 0.13936 12.7556 0.292633 12.7556H9.48382C9.6371 12.7556 9.76132 12.6281 9.76132 12.4708V11.3234C9.76251 8.56158 7.58005 6.32228 4.88823 6.32339ZM9.20633 12.1861H0.570129V11.3234C0.566227 9.73784 1.38842 8.27107 2.72604 7.47707C4.06365 6.68319 5.7128 6.68319 7.05053 7.47707C8.38815 8.27107 9.21034 9.73784 9.20633 11.3234V12.1861Z" fill="#828282"/>
</svg>
